# xmcd CD database file
#
# Track frame offsets:
#	150
#	23222
#	44975
#	77807
#	98485
#	115730
#	131877
#	153717
#	176515
#	192612
#	212140
#	227222
#
# Disc length: 3265 seconds
#
# Revision: 8
# Processed by: cddbd v1.4PL0 Copyright (c) Steve Scherf et al.
# Submitted via: CDex 1.50beta9
#
DISCID=ad0cbf0c
DTITLE=Charlie Byrd - The Bossa Nova Years (With Ken Peplowski)
DYEAR=1991
DGENRE=Jazz
TTITLE0=Meditation
TTITLE1=One Note Samba
TTITLE2=Corcovado
TTITLE3=Triste
TTITLE4=Dindi
TTITLE5=O Pato
TTITLE6=The Girl From Ipanema
TTITLE7=Samba D'Orpheo
TTITLE8=How Insensitive
TTITLE9=Wave
TTITLE10=P'Ra Dizer Adeus (To Say Goodbye)
TTITLE11=O Nosso Amor
EXTD=YEAR: 1991
EXTT0=
EXTT1=
EXTT2=
EXTT3=
EXTT4=
EXTT5=
EXTT6=
EXTT7=
EXTT8=
EXTT9=
EXTT10=To Say Goodbye\n
EXTT11=
PLAYORDER=
